<svg xmlns="http://www.w3.org/2000/svg" viewBox="0 0 96 96" role="img" aria-label="Orán Natural">
  <circle cx="48" cy="48" r="44" fill="#f6f1e4"/>
  <circle cx="48" cy="48" r="44" fill="none" stroke="#14342a" stroke-width="4"/>
  <clipPath id="fav"><circle cx="48" cy="48" r="40"/></clipPath>
  <g clip-path="url(#fav)">
    <rect x="6" y="6" width="84" height="84" fill="#f6f1e4"/>
    <circle cx="48" cy="34" r="13" fill="#e3a516"/>
    <path d="M6 64 L26 40 L42 60 L60 36 L78 58 L90 46 L90 90 L6 90 Z" fill="#14342a"/>
    <path d="M6 74 L24 54 L40 72 L58 50 L74 70 L90 58 L90 90 L6 90 Z" fill="#2f5d3a"/>
    <path d="M6 84 Q30 76 48 84 T90 84 L90 92 L6 92 Z" fill="#1f8a8a"/>
  </g>
  <g transform="translate(68 58)">
    <path d="M0 16 C2 4 14 -5 26 -2 C24 10 14 18 0 16 Z" fill="#9bc24a"/>
  </g>
</svg>
